HIERARCHY
ROOT Hips
{
	OFFSET 0.00000 0.00000 0.00000
	CHANNELS 6 Xposition Yposition Zposition Zrotation Yrotation Xrotation 
	JOINT LHipJoint
	{
		OFFSET 0 0 0
		CHANNELS 3 Zrotation Yrotation Xrotation
		JOINT LeftUpLeg
		{
			OFFSET 1.53139 -1.83434 0.76626
			CHANNELS 3 Zrotation Yrotation Xrotation
			JOINT LeftLeg
			{
				OFFSET 2.56112 -7.03663 0.00000
				CHANNELS 3 Zrotation Yrotation Xrotation
				JOINT LeftFoot
				{
					OFFSET 2.59983 -7.14299 0.00000
					CHANNELS 3 Zrotation Yrotation Xrotation
					JOINT LeftToeBase
					{
						OFFSET 0.13742 -0.37757 2.00054
						CHANNELS 3 Zrotation Yrotation Xrotation
						End Site
						{
							OFFSET 0.00000 -0.00000 1.02897
						}
					}
				}
			}
		}
	}
	JOINT RHipJoint
	{
		OFFSET 0 0 0
		CHANNELS 3 Zrotation Yrotation Xrotation
		JOINT RightUpLeg
		{
			OFFSET -1.40122 -1.83435 0.76627
			CHANNELS 3 Zrotation Yrotation Xrotation
			JOINT RightLeg
			{
				OFFSET -2.54052 -6.98003 0.00000
				CHANNELS 3 Zrotation Yrotation Xrotation
				JOINT RightFoot
				{
					OFFSET -2.63179 -7.23079 0.00000
					CHANNELS 3 Zrotation Yrotation Xrotation
					JOINT RightToeBase
					{
						OFFSET -0.24131 -0.66299 2.03908
						CHANNELS 3 Zrotation Yrotation Xrotation
						End Site
						{
							OFFSET -0.00000 -0.00000 1.07391
						}
					}
				}
			}
		}
	}
	JOINT LowerBack
	{
		OFFSET 0 0 0
		CHANNELS 3 Zrotation Yrotation Xrotation
		JOINT Spine
		{
			OFFSET 0.01174 2.10302 -0.29778
			CHANNELS 3 Zrotation Yrotation Xrotation
			JOINT Spine1
			{
				OFFSET 0.00772 2.13227 -0.01247
				CHANNELS 3 Zrotation Yrotation Xrotation
				JOINT Neck
				{
					OFFSET 0 0 0
					CHANNELS 3 Zrotation Yrotation Xrotation
					JOINT Neck1
					{
						OFFSET -0.09219 1.60848 0.31481
						CHANNELS 3 Zrotation Yrotation Xrotation
						JOINT Head
						{
							OFFSET 0.13974 1.65456 -0.31134
							CHANNELS 3 Zrotation Yrotation Xrotation
							End Site
							{
								OFFSET 0.04742 1.69515 -0.14578
							}
						}
					}
				}
				JOINT LeftShoulder
				{
					OFFSET 0 0 0
					CHANNELS 3 Zrotation Yrotation Xrotation
					JOINT LeftArm
					{
						OFFSET 3.24909 1.02882 -0.23993
						CHANNELS 3 Zrotation Yrotation Xrotation
						JOINT LeftForeArm
						{
							OFFSET 5.32955 -0.00000 -0.00000
							CHANNELS 3 Zrotation Yrotation Xrotation
							JOINT LeftHand
							{
								OFFSET 3.69232 -0.00000 -0.00000
								CHANNELS 3 Zrotation Yrotation Xrotation
								JOINT LeftFingerBase
								{
									OFFSET 0 0 0
									CHANNELS 3 Zrotation Yrotation Xrotation
									JOINT LeftHandIndex1
									{
										OFFSET 0.53660 -0.00000 -0.00000
										CHANNELS 3 Zrotation Yrotation Xrotation
										End Site
										{
											OFFSET 0.43262 -0.00000 -0.00000
										}
									}
								}
								JOINT LThumb
								{
									OFFSET 0 0 0
									CHANNELS 3 Zrotation Yrotation Xrotation
									End Site
									{
										OFFSET 0.43922 -0.00000 0.43922
									}
								}
							}
						}
					}
				}
				JOINT RightShoulder
				{
					OFFSET 0 0 0
					CHANNELS 3 Zrotation Yrotation Xrotation
					JOINT RightArm
					{
						OFFSET -3.21387 0.93002 -0.34594
						CHANNELS 3 Zrotation Yrotation Xrotation
						JOINT RightForeArm
						{
							OFFSET -5.23431 -0.00000 0.00000
							CHANNELS 3 Zrotation Yrotation Xrotation
							JOINT RightHand
							{
								OFFSET -3.55301 -0.00000 -0.00000
								CHANNELS 3 Zrotation Yrotation Xrotation
								JOINT RightFingerBase
								{
									OFFSET 0 0 0
									CHANNELS 3 Zrotation Yrotation Xrotation
									JOINT RightHandIndex1
									{
										OFFSET -0.77252 -0.00000 -0.00000
										CHANNELS 3 Zrotation Yrotation Xrotation
										End Site
										{
											OFFSET -0.62283 -0.00000 -0.00000
										}
									}
								}
								JOINT RThumb
								{
									OFFSET 0 0 0
									CHANNELS 3 Zrotation Yrotation Xrotation
									End Site
									{
										OFFSET -0.63234 -0.00000 0.63234
									}
								}
							}
						}
					}
				}
			}
		}
	}
}
MOTION
Frames: 7
Frame Time: 0.0555556
0.00 0.00 0.00 0 0 0 0 0 0 -21 0 0 0 0 0 0 0 0 0 0 0 0 0 0 21 0 0 0 0 0 0 0 0 0 0 0 0 0 0 0 0 0 0 0 0 0 0 -16 0 0 21 0 0 11 0 0 0 -8 0 0 0 0 0 0 0 0 0 0 0 0 0 0 0 0 0 0 0 0 8 0 0 0 0 0 0 0 0 0 0 0 0 0 0 0 0 0
0.00 0.00 0.00 -2.9427 62.0325 -2.0768 0.0000 0.0000 0.0000 -12.2871 -6.4328 -19.2360 1.3193 7.2747 20.5317 -0.5871 13.8457 -8.7694 0.2434 3.1750 8.7664 0.0000 0.0000 0.0000 19.9134 -6.7286 0.0021 -1.2089 -6.9751 19.6415 -0.3177 -13.1987 -22.1828 -0.0001 0.0500 -0.1375 2.8863 2.5634 12.1562 1.2941 3.8961 1.6868 -0.8974 1.8975 -4.9347 -10.1978 -3.2332 -17.0264 5.2691 -2.4390 35.1207 3.6727 -1.3847 15.4158 0.0000 0.0000 0.0000 -82.1497 0.3215 20.8723 16.0188 -25.5461 -3.6541 -0.0000 -0.0000 0.3146 19.6079 24.7137 8.4712 -7.1250 0.0000 -0.0000 -10.7040 55.6978 -2.8334 0.0000 0.0000 0.0000 82.8236 4.1782 11.4043 -14.0708 22.8358 -2.8555 0.0000 0.0000 7.1044 -15.5019 5.6077 -1.5525 7.1250 -0.0000 -0.0000 8.3150 -24.1673 4.2248
0.00 0.00 0.00 9.8985 73.2071 8.9553 0.0000 0.0000 0.0000 -25.3715 2.5611 -14.5444 1.2602 7.1162 20.0601 0.1090 -0.5480 -6.0651 0.1675 2.6363 7.2679 0.0000 0.0000 0.0000 10.0057 -12.5549 -0.4149 -3.4093 -11.3298 33.4004 0.7837 -18.5898 -18.0234 -1.0544 -6.5293 18.3280 -1.3562 3.4611 11.1702 -1.0521 4.4312 1.6963 -0.9947 2.2253 -4.4927 -12.0629 -4.1275 -15.9485 5.8780 -3.1453 36.9816 4.2564 -1.8032 16.2605 0.0000 0.0000 0.0000 -84.7552 3.6231 4.1409 9.6002 -16.1118 -1.3619 -0.0000 -0.0000 11.8387 18.0379 27.8043 8.6372 -7.1250 0.0000 -0.0000 -13.9803 58.4426 -4.6547 0.0000 0.0000 0.0000 88.8472 2.4162 9.2262 -13.7790 22.4178 -2.7432 0.0000 0.0000 11.1122 -13.7700 7.6682 -1.8730 7.1250 -0.0000 -0.0000 9.4881 -22.1229 5.2875
0.00 0.00 0.00 153.2150 76.1988 156.1060 0.0000 0.0000 0.0000 -29.6826 5.3227 8.2780 0.1298 2.3219 6.3963 -0.7400 -17.9243 -3.8616 0.3585 3.8466 10.6456 0.0000 0.0000 0.0000 16.2833 1.7965 -33.1299 -2.0553 -8.9804 25.7341 -0.0859 -8.2254 -13.3009 -0.0378 1.2551 -3.4509 -7.3328 0.0089 12.9051 -1.7015 -0.9143 2.4104 2.4902 -0.2906 -4.5978 -13.3720 -6.0947 -12.5632 6.3367 -5.7734 37.9325 4.3120 -2.9301 16.3998 0.0000 0.0000 0.0000 -83.1594 -4.3255 31.1971 18.7295 -29.0812 -4.8987 -0.0000 -0.0000 1.6235 20.0253 25.2736 8.8447 -7.1250 0.0000 -0.0000 -10.5290 56.3493 -2.9532 0.0000 0.0000 0.0000 86.7391 -1.3035 11.9032 -16.4049 26.0666 -3.8222 0.0000 0.0000 6.9834 -15.5682 8.2164 -2.2801 7.1250 -0.0000 -0.0000 8.1675 -21.4886 4.6544
0.00 0.00 0.00 155.1140 77.7879 160.0570 0.0000 0.0000 0.0000 -25.8994 4.6984 5.7174 1.1610 6.8405 19.2437 -0.7526 -15.8851 11.0659 0.2823 3.4169 9.4418 0.0000 0.0000 0.0000 18.4615 4.6350 -28.6745 -2.6002 -10.0178 29.0345 0.2556 -10.1283 -8.8353 -1.4080 -7.5053 21.2212 -4.0257 -0.4600 13.8326 0.4152 -0.9946 3.2198 2.8775 -0.3845 -4.2703 -13.3532 -6.0996 -12.4623 6.1516 -5.7161 37.8189 4.2295 -2.9270 16.3001 -0.0000 -0.0000 0.0000 -85.3731 -0.0860 25.1015 14.1125 -22.8953 -2.8717 -0.0000 -0.0000 3.6943 20.8596 25.6431 9.3642 -7.1250 0.0000 -0.0000 -9.8234 56.8996 -2.8837 -0.0000 -0.0000 0.0000 85.9414 0.4923 13.0965 -18.5909 28.9071 -4.8315 0.0000 0.0000 5.7821 -15.9124 8.3410 -2.3682 7.1250 -0.0000 -0.0000 7.9156 -21.3445 4.5342
0.00 0.00 0.00 163.3140 79.4939 168.1390 0.0000 0.0000 0.0000 -21.7957 0.9832 -2.2364 3.6661 11.7022 34.6866 -0.2946 -17.8423 22.5164 0.0076 0.5630 1.5471 0.0000 0.0000 0.0000 21.8926 3.6106 -26.0310 -2.6142 -10.0427 29.1150 0.0157 -7.9985 -11.0735 -1.3228 -7.2841 20.5599 -1.7694 -0.6733 14.8925 1.4330 -0.8771 3.7214 2.6636 -0.3317 -4.3501 -12.8582 -6.1028 -12.1709 5.9163 -5.8450 37.5394 4.0000 -2.9486 16.0606 -0.0000 0.0000 0.0000 -84.7599 -0.1899 26.0692 13.3798 -21.8412 -2.5929 -0.0000 -0.0000 6.0561 18.6907 26.0602 8.4534 -7.1250 0.0000 -0.0000 -12.3192 56.8586 -3.6179 -0.0000 0.0000 0.0000 85.0348 1.4971 16.8585 -21.3282 32.2095 -6.2240 0.0000 0.0000 3.2824 -15.7348 8.0471 -2.2586 7.1250 -0.0000 -0.0000 8.0519 -21.6546 4.5566
0.00 0.00 0.00 165.4960 82.5210 169.8960 0.0000 0.0000 0.0000 -18.8967 -2.6162 -9.2980 6.2303 14.6478 45.8990 -1.2809 -19.6187 9.2520 0.3274 -3.6774 -10.1707 0.0000 0.0000 0.0000 24.1859 3.8698 -22.8999 -2.6462 -10.0989 29.2977 -0.1775 -6.3068 -12.6563 -0.9993 -6.3616 17.8372 -1.8139 -0.0419 16.5450 2.2186 0.0259 4.3010 3.3663 0.1350 -4.6772 -12.5618 -6.0652 -11.5638 6.1313 -6.0314 37.3846 4.0101 -2.9642 15.8464 0.0000 -0.0000 0.0000 -84.4939 -2.0682 27.4461 13.2039 -21.5853 -2.5278 -0.0000 -0.0000 4.7252 20.9381 26.6058 9.7237 -7.1250 0.0000 -0.0000 -10.2124 57.8923 -3.2447 0.0000 -0.0000 0.0000 83.7498 3.5404 19.3046 -23.5740 34.7105 -7.4626 0.0000 0.0000 2.9380 -15.7026 9.2714 -2.5934 7.1250 -0.0000 -0.0000 8.0444 -20.3995 4.7826
